<svg width="270" height="226" viewBox="0 0 270 226" fill="none" xmlns="http://www.w3.org/2000/svg">
<path d="M0 8C0 12.4183 3.58172 16 8 16C12.4183 16 16 12.4183 16 8C16 3.58172 12.4183 0 8 0C3.58172 0 0 3.58172 0 8ZM73 8L74.2916 7.23732L73.8563 6.5H73V8ZM8 8V9.5H73V8V6.5H8V8ZM73 8L71.7084 8.76268L195.708 218.763L197 218L198.292 217.237L74.2916 7.23732L73 8Z" fill="#003631"/>
<path d="M197 216.5C196.172 216.5 195.5 217.172 195.5 218C195.5 218.828 196.172 219.5 197 219.5V218V216.5ZM254 218C254 222.418 257.582 226 262 226C266.418 226 270 222.418 270 218C270 213.582 266.418 210 262 210C257.582 210 254 213.582 254 218ZM197 218V219.5H262V218V216.5H197V218Z" fill="#003631"/>
</svg>
