<svg width="16" height="151" viewBox="0 0 16 151" fill="none" xmlns="http://www.w3.org/2000/svg">
<path d="M0 8C1.93129e-07 12.4183 3.58172 16 8 16C12.4183 16 16 12.4183 16 8C16 3.58172 12.4183 -1.93129e-07 8 0C3.58172 1.93129e-07 -1.93129e-07 3.58172 0 8ZM5.90104e-06 143C6.09417e-06 147.418 3.58173 151 8.00001 151C12.4183 151 16 147.418 16 143C16 138.582 12.4183 135 8.00001 135C3.58173 135 5.70791e-06 138.582 5.90104e-06 143ZM8 8L6.5 8L6.50001 143L8.00001 143L9.50001 143L9.5 8L8 8Z" fill="#003631"/>
</svg>
