<svg width="52" height="52" viewBox="0 0 52 52" fill="none" xmlns="http://www.w3.org/2000/svg">
<path d="M49.2916 47.6665C49.2916 48.5548 48.555 49.2915 47.6666 49.2915H4.33331C3.44498 49.2915 2.70831 48.5548 2.70831 47.6665C2.70831 46.7565 3.44498 46.0415 4.33331 46.0415H47.6666C48.555 46.0415 49.2916 46.7565 49.2916 47.6665Z" fill="#003631"/>
<path opacity="0.4" d="M45.5 21.6235V46.0418H6.39166L6.5 21.6018C6.5 20.2801 7.10666 19.0236 8.16833 18.2002L23.335 6.41355C24.895 5.17855 27.105 5.17855 28.665 6.41355L43.8317 18.2002C44.8933 19.0236 45.5 20.2801 45.5 21.6235Z" fill="#003631"/>
<path d="M29.25 17.875H22.75C21.8617 17.875 21.125 17.1383 21.125 16.25C21.125 15.3617 21.8617 14.625 22.75 14.625H29.25C30.1383 14.625 30.875 15.3617 30.875 16.25C30.875 17.1383 30.1383 17.875 29.25 17.875Z" fill="#003631"/>
<path d="M33.5834 23.8335H18.4167C16.6184 23.8335 15.1667 25.2852 15.1667 27.0835V47.6668H36.8334V27.0835C36.8334 25.2852 35.3817 23.8335 33.5834 23.8335ZM23.2917 38.4585C23.2917 39.3468 22.555 40.0835 21.6667 40.0835C20.7784 40.0835 20.0417 39.3468 20.0417 38.4585V35.2085C20.0417 34.3202 20.7784 33.5835 21.6667 33.5835C22.555 33.5835 23.2917 34.3202 23.2917 35.2085V38.4585Z" fill="#003631"/>
</svg>
