<svg width="52" height="52" viewBox="0 0 52 52" fill="none" xmlns="http://www.w3.org/2000/svg">
<path opacity="0.4" d="M21.58 4.5715L9.66336 9.03483C7.38836 9.9015 5.52502 12.5882 5.52502 15.0365V32.5865C5.52502 34.3415 6.67336 36.6598 8.08169 37.6998L19.9984 46.6048C22.1 48.1865 25.545 48.1865 27.6467 46.6048L39.5634 37.6998C40.9717 36.6382 42.12 34.3415 42.12 32.5865V15.0365C42.12 12.6098 40.2567 9.9015 37.9817 9.0565L26.065 4.59317C24.8517 4.1165 22.815 4.1165 21.58 4.5715Z" fill="#003631"/>
<path d="M34.6666 24.9385C29.2933 24.9385 24.9166 29.3151 24.9166 34.6885C24.9166 40.0618 29.2933 44.4385 34.6666 44.4385C40.04 44.4385 44.4166 40.0618 44.4166 34.6885C44.4166 29.2935 40.04 24.9385 34.6666 24.9385Z" fill="#003631"/>
<path d="M45.5 47.6668C44.915 47.6668 44.3734 47.4284 43.9617 47.0384C43.875 46.9301 43.7667 46.8218 43.7017 46.6918C43.615 46.5834 43.55 46.4534 43.5067 46.3234C43.4417 46.1934 43.3984 46.0635 43.3767 45.9335C43.355 45.7818 43.3334 45.6518 43.3334 45.5001C43.3334 45.2185 43.3984 44.9368 43.5067 44.6768C43.615 44.3951 43.7667 44.1785 43.9617 43.9618C44.46 43.4635 45.2184 43.2251 45.9117 43.3768C46.0634 43.3985 46.1934 43.4418 46.3234 43.5068C46.4534 43.5501 46.5834 43.6151 46.6917 43.7018C46.8217 43.7668 46.93 43.8751 47.0384 43.9618C47.2334 44.1785 47.385 44.3951 47.4934 44.6768C47.6017 44.9368 47.6667 45.2185 47.6667 45.5001C47.6667 46.0634 47.4284 46.6268 47.0384 47.0384C46.93 47.1251 46.8217 47.2118 46.6917 47.2984C46.5834 47.3851 46.4534 47.4501 46.3234 47.4935C46.1934 47.5585 46.0634 47.6018 45.9117 47.6234C45.7817 47.6451 45.63 47.6668 45.5 47.6668Z" fill="#003631"/>
</svg>
