<svg width="52" height="52" viewBox="0 0 52 52" fill="none" xmlns="http://www.w3.org/2000/svg">
<path opacity="0.4" d="M16.575 45.305C16.51 45.305 16.4233 45.3483 16.3583 45.3483C12.155 43.2683 8.73167 39.8233 6.63 35.62C6.63 35.555 6.67334 35.4683 6.67334 35.4033C9.31667 36.1833 12.0467 36.7683 14.755 37.2233C15.2317 39.9533 15.795 42.6617 16.575 45.305Z" fill="#003631"/>
<path opacity="0.4" d="M45.37 35.6417C43.225 39.9533 39.65 43.4417 35.295 45.5433C36.1183 42.7917 36.8117 40.0183 37.2667 37.2233C39.9967 36.7683 42.6833 36.1833 45.3267 35.4033C45.305 35.49 45.37 35.5767 45.37 35.6417Z" fill="#003631"/>
<path opacity="0.4" d="M45.5433 16.7049C42.8133 15.8815 40.0617 15.2099 37.2667 14.7332C36.8117 11.9382 36.14 9.16488 35.295 6.45654C39.78 8.60154 43.3983 12.2199 45.5433 16.7049Z" fill="#003631"/>
<path opacity="0.4" d="M16.575 6.69488C15.795 9.33822 15.2317 12.0249 14.7767 14.7549C11.9817 15.1882 9.20833 15.8815 6.45667 16.7049C8.55833 12.3499 12.0467 8.77488 16.3583 6.62988C16.4233 6.62988 16.51 6.69488 16.575 6.69488Z" fill="#003631"/>
<path d="M33.5617 14.2785C28.535 13.7152 23.465 13.7152 18.4383 14.2785C18.98 11.3102 19.6733 8.34183 20.6483 5.48183C20.6917 5.3085 20.67 5.1785 20.6917 5.00516C22.4033 4.5935 24.1583 4.3335 26 4.3335C27.82 4.3335 29.5967 4.5935 31.2867 5.00516C31.3083 5.1785 31.3083 5.3085 31.3517 5.48183C32.3267 8.3635 33.02 11.3102 33.5617 14.2785Z" fill="#003631"/>
<path d="M14.2783 33.5618C11.2883 33.0201 8.34166 32.3268 5.48166 31.3518C5.30833 31.3085 5.17833 31.3301 5.00499 31.3085C4.59333 29.5968 4.33333 27.8418 4.33333 26.0001C4.33333 24.1801 4.59333 22.4035 5.00499 20.7135C5.17833 20.6918 5.30833 20.6918 5.48166 20.6485C8.36333 19.6951 11.2883 18.9801 14.2783 18.4385C13.7367 23.4651 13.7367 28.5351 14.2783 33.5618Z" fill="#003631"/>
<path d="M47.6667 26.0001C47.6667 27.8418 47.4067 29.5968 46.995 31.3085C46.8217 31.3301 46.6917 31.3085 46.5183 31.3518C43.6367 32.3051 40.69 33.0201 37.7217 33.5618C38.285 28.5351 38.285 23.4651 37.7217 18.4385C40.69 18.9801 43.6583 19.6735 46.5183 20.6485C46.6917 20.6918 46.8217 20.7135 46.995 20.7135C47.4067 22.4251 47.6667 24.1801 47.6667 26.0001Z" fill="#003631"/>
<path d="M33.5617 37.7217C33.02 40.7117 32.3267 43.6583 31.3517 46.5183C31.3083 46.6917 31.3083 46.8217 31.2867 46.995C29.5967 47.4067 27.82 47.6667 26 47.6667C24.1583 47.6667 22.4033 47.4067 20.6917 46.995C20.67 46.8217 20.6917 46.6917 20.6483 46.5183C19.695 43.6367 18.98 40.7117 18.4383 37.7217C20.9517 38.0033 23.465 38.1983 26 38.1983C28.535 38.1983 31.07 38.0033 33.5617 37.7217Z" fill="#003631"/>
<path d="M34.1539 34.154C28.7349 34.8378 23.2652 34.8378 17.8461 34.154C17.1624 28.735 17.1624 23.2653 17.8461 17.8463C23.2652 17.1626 28.7349 17.1626 34.1539 17.8463C34.8376 23.2653 34.8376 28.735 34.1539 34.154Z" fill="#003631"/>
</svg>
