<svg width="52" height="52" viewBox="0 0 52 52" fill="none" xmlns="http://www.w3.org/2000/svg">
<path opacity="0.4" d="M47.6666 30.3335V36.8335C47.6666 40.4302 44.7633 43.3335 41.1666 43.3335H39C39 40.9502 37.05 39.0002 34.6666 39.0002C32.2833 39.0002 30.3333 40.9502 30.3333 43.3335H21.6666C21.6666 40.9502 19.7166 39.0002 17.3333 39.0002C14.95 39.0002 13 40.9502 13 43.3335H10.8333C7.23665 43.3335 4.33331 40.4302 4.33331 36.8335V30.3335H28.1666C30.55 30.3335 32.5 28.3835 32.5 26.0002V10.8335H36.4867C38.0467 10.8335 39.4767 11.6785 40.2567 13.0219L43.9616 19.5002H41.1666C39.975 19.5002 39 20.4752 39 21.6668V28.1668C39 29.3585 39.975 30.3335 41.1666 30.3335H47.6666Z" fill="#003631"/>
<path d="M17.3333 47.6667C19.7266 47.6667 21.6667 45.7266 21.6667 43.3333C21.6667 40.9401 19.7266 39 17.3333 39C14.9401 39 13 40.9401 13 43.3333C13 45.7266 14.9401 47.6667 17.3333 47.6667Z" fill="#003631"/>
<path d="M34.6666 47.6667C37.0599 47.6667 39 45.7266 39 43.3333C39 40.9401 37.0599 39 34.6666 39C32.2734 39 30.3333 40.9401 30.3333 43.3333C30.3333 45.7266 32.2734 47.6667 34.6666 47.6667Z" fill="#003631"/>
<path d="M47.6667 27.1484V30.3333H41.1667C39.975 30.3333 39 29.3583 39 28.1667V21.6667C39 20.475 39.975 19.5 41.1667 19.5H43.9616L47.1033 25.0033C47.4716 25.6533 47.6667 26.3901 47.6667 27.1484Z" fill="#003631"/>
<path d="M30.3334 4.3335H13C8.77504 4.3335 5.26508 7.36683 4.50674 11.3752H15.1667C16.055 11.3752 16.7917 12.1118 16.7917 13.0002C16.7917 13.8885 16.055 14.6252 15.1667 14.6252H4.33337V17.8752H10.8334C11.7217 17.8752 12.4584 18.6118 12.4584 19.5002C12.4584 20.3885 11.7217 21.1252 10.8334 21.1252H4.33337V24.3752H6.50004C7.38837 24.3752 8.12504 25.1118 8.12504 26.0002C8.12504 26.8885 7.38837 27.6252 6.50004 27.6252H4.33337V30.3335H28.1667C30.55 30.3335 32.5 28.3835 32.5 26.0002V6.50016C32.5 5.3085 31.525 4.3335 30.3334 4.3335Z" fill="#003631"/>
<path d="M4.50672 11.375H2.16669C1.27835 11.375 0.541687 12.1117 0.541687 13C0.541687 13.8883 1.27835 14.625 2.16669 14.625H4.33335V13C4.33335 12.4367 4.39839 11.895 4.50672 11.375Z" fill="#003631"/>
<path d="M2.16669 17.875C1.27835 17.875 0.541687 18.6117 0.541687 19.5C0.541687 20.3883 1.27835 21.125 2.16669 21.125H4.33335V17.875H2.16669Z" fill="#003631"/>
<path d="M2.16669 24.375C1.27835 24.375 0.541687 25.1117 0.541687 26C0.541687 26.8883 1.27835 27.625 2.16669 27.625H4.33335V24.375H2.16669Z" fill="#003631"/>
</svg>
