<svg width="270" height="226" viewBox="0 0 270 226" fill="none" xmlns="http://www.w3.org/2000/svg">
<path d="M0 218C0 213.582 3.58172 210 8 210C12.4183 210 16 213.582 16 218C16 222.418 12.4183 226 8 226C3.58172 226 0 222.418 0 218ZM73 218L74.2916 218.763L73.8563 219.5H73V218ZM8 218V216.5H73V218V219.5H8V218ZM73 218L71.7084 217.237L195.708 7.23732L197 8L198.292 8.76268L74.2916 218.763L73 218Z" fill="#003631"/>
<path d="M197 9.5C196.172 9.5 195.5 8.82843 195.5 8C195.5 7.17157 196.172 6.5 197 6.5V8V9.5ZM254 8C254 3.58172 257.582 0 262 0C266.418 0 270 3.58172 270 8C270 12.4183 266.418 16 262 16C257.582 16 254 12.4183 254 8ZM197 8V6.5H262V8V9.5H197V8Z" fill="#003631"/>
</svg>
